# xmcd
#
# Track frame offsets: 
#        187
#        12475
#        25070
#        39327
#        50752
#        63100
#        78467
#        91547
#        108312
#        120212
#        131675
#        145215
#        161165
#        173452
#        184810
#        195520
#        209882
#        220347
#        231627
#        246695
#        258997
#        271327
#
# Disc length: 3769 seconds
#
# Revision: 2
# Processed by: cddbd v1.5.2PL0 Copyright (c) Steve Scherf et al.
# Submitted via: ExactAudioCopyFreeDBPlugin 1.0
#
DISCID=3d0eb716
DTITLE=Reba McEntire - My Kind Of Country
DYEAR=1992
DGENRE=Country
TTITLE0=I Don't Want To Mention Any Names
TTITLE1=Have I Got A Deal For You
TTITLE2=I'm In Love All Over
TTITLE3=She's Single Again
TTITLE4=She's The One Loving You Now
TTITLE5=Whose Heartache Is This Anyway
TTITLE6=I Don't Need Nothin' You Ain't Got
TTITLE7=You Can Take The Wings Off Me
TTITLE8=One Thin Dime
TTITLE9=To Make That Same Mistake Again
TTITLE10=Silver Eagle
TTITLE11=Till It Snows In Mexico
TTITLE12=How Blue
TTITLE13=That's Waht He Said
TTITLE14=I Want To Hear It From You
TTITLE15=It's Not Over
TTITLE16=Dont't You Believe Him
TTITLE17=Before I Met You
TTITLE18=He's Only Everything
TTITLE19=You've Got Me
TTITLE20=How Blue
TTITLE21=That's What He Sad
EXTD=
EXTT0=
EXTT1=
EXTT2=
EXTT3=
EXTT4=
EXTT5=
EXTT6=
EXTT7=
EXTT8=
EXTT9=
EXTT10=
EXTT11=
EXTT12=
EXTT13=
EXTT14=
EXTT15=
EXTT16=
EXTT17=
EXTT18=
EXTT19=
EXTT20=
EXTT21=
PLAYORDER=
